<svg width="20" height="20" viewBox="0 0 20 20" fill="none" xmlns="http://www.w3.org/2000/svg">
<g clip-path="url(#clip0_2995_814)">
<path d="M6.66661 14.1667L9.99994 17.5M9.99994 17.5L13.3333 14.1667M9.99994 17.5V10M17.3999 15.075C18.1244 14.5655 18.6677 13.8385 18.951 12.9993C19.2343 12.1601 19.2428 11.2525 18.9753 10.4082C18.7078 9.56387 18.1782 8.82675 17.4633 8.30381C16.7485 7.78087 15.8856 7.49931 14.9999 7.50001H13.9499C13.6993 6.52323 13.2304 5.61605 12.5784 4.84674C11.9264 4.07743 11.1084 3.46606 10.186 3.05863C9.2635 2.65121 8.26065 2.45836 7.25288 2.4946C6.24512 2.53084 5.25871 2.79523 4.36791 3.26786C3.47711 3.74049 2.70513 4.40905 2.1101 5.2232C1.51507 6.03735 1.11249 6.97588 0.932662 7.96813C0.752836 8.96038 0.800453 9.9805 1.07193 10.9517C1.3434 11.9229 1.83166 12.8198 2.49994 13.575" stroke="#344054" stroke-width="1.67" stroke-linecap="round" stroke-linejoin="round"/>
</g>
<defs>
<clipPath id="clip0_2995_814">
<rect width="20" height="20" fill="white"/>
</clipPath>
</defs>
</svg>
